# xmcd CD database file
#
# Track frame offsets:
#	150
#	15700
#	30152
#	46235
#	64120
#	77532
#	88120
#	97945
#	110045
#	125045
#	143717
#	160137
#	165602
#
# Disc length: 2397 seconds
#
# Revision: 31
# Processed by: cddbd v1.5.2PL0 Copyright (c) Steve Scherf et al.
# Submitted via: CDex 1.77
#
DISCID=9c095b0d
DTITLE=Various Artist - Shrek
DYEAR=2001
DGENRE=Soundtrack
TTITLE0=Self - Stay Home
TTITLE1=Smash Mouth - I'm A Believer
TTITLE2=Leslie Carter - Like Wow!
TTITLE3=Dana Glover - It Is You (I Have Loved)
TTITLE4=Baha Men - Best Years Of Our Lives
TTITLE5=Halfcocked - Bad Reputation
TTITLE6=Eels - My Beloved Monster
TTITLE7=Shrek - You Belong To Me
TTITLE8=Shrek - All Star
TTITLE9=Shrek - Hallelujah
TTITLE10=Shrek - I'm On My Way
TTITLE11=Shrek - I'm A Believer (Reprise)
TTITLE12=Shrek - True Love's First Kiss
EXTD=YEAR: 2001
EXTT0=
EXTT1=
EXTT2=
EXTT3=
EXTT4=
EXTT5=
EXTT6=
EXTT7=
EXTT8=
EXTT9=
EXTT10=
EXTT11=
EXTT12=
PLAYORDER=
